<svg xmlns="http://www.w3.org/2000/svg" width="244" height="100" viewBox="0 0 244 100">
    <g fill="none" fill-opacity=".199" fill-rule="evenodd" opacity=".417">
        <g fill="#3B012D">
            <g>
                <g transform="translate(-1036 -1659) translate(160 1659) translate(876)">
                    <circle cx="242" cy="98" r="2"/>
                    <circle cx="226" cy="98" r="2"/>
                    <circle cx="210" cy="98" r="2"/>
                    <circle cx="194" cy="98" r="2"/>
                    <circle cx="178" cy="98" r="2"/>
                    <circle cx="162" cy="98" r="2"/>
                    <circle cx="146" cy="98" r="2"/>
                    <circle cx="130" cy="98" r="2"/>
                    <circle cx="114" cy="98" r="2"/>
                    <circle cx="98" cy="98" r="2"/>
                    <circle cx="82" cy="98" r="2"/>
                    <circle cx="66" cy="98" r="2"/>
                    <circle cx="50" cy="98" r="2"/>
                    <circle cx="34" cy="98" r="2"/>
                    <circle cx="18" cy="98" r="2"/>
                    <circle cx="2" cy="98" r="2"/>
                    <circle cx="242" cy="82" r="2"/>
                    <circle cx="226" cy="82" r="2"/>
                    <circle cx="210" cy="82" r="2"/>
                    <circle cx="194" cy="82" r="2"/>
                    <circle cx="178" cy="82" r="2"/>
                    <circle cx="162" cy="82" r="2"/>
                    <circle cx="146" cy="82" r="2"/>
                    <circle cx="130" cy="82" r="2"/>
                    <circle cx="114" cy="82" r="2"/>
                    <circle cx="98" cy="82" r="2"/>
                    <circle cx="82" cy="82" r="2"/>
                    <circle cx="66" cy="82" r="2"/>
                    <circle cx="50" cy="82" r="2"/>
                    <circle cx="34" cy="82" r="2"/>
                    <circle cx="18" cy="82" r="2"/>
                    <circle cx="2" cy="82" r="2"/>
                    <circle cx="242" cy="66" r="2"/>
                    <circle cx="226" cy="66" r="2"/>
                    <circle cx="210" cy="66" r="2"/>
                    <circle cx="194" cy="66" r="2"/>
                    <circle cx="178" cy="66" r="2"/>
                    <circle cx="162" cy="66" r="2"/>
                    <circle cx="146" cy="66" r="2"/>
                    <circle cx="130" cy="66" r="2"/>
                    <circle cx="114" cy="66" r="2"/>
                    <circle cx="98" cy="66" r="2"/>
                    <circle cx="82" cy="66" r="2"/>
                    <circle cx="66" cy="66" r="2"/>
                    <circle cx="50" cy="66" r="2"/>
                    <circle cx="34" cy="66" r="2"/>
                    <circle cx="18" cy="66" r="2"/>
                    <circle cx="2" cy="66" r="2"/>
                    <circle cx="242" cy="50" r="2"/>
                    <circle cx="226" cy="50" r="2"/>
                    <circle cx="210" cy="50" r="2"/>
                    <circle cx="194" cy="50" r="2"/>
                    <circle cx="178" cy="50" r="2"/>
                    <circle cx="162" cy="50" r="2"/>
                    <circle cx="146" cy="50" r="2"/>
                    <circle cx="130" cy="50" r="2"/>
                    <circle cx="114" cy="50" r="2"/>
                    <circle cx="98" cy="50" r="2"/>
                    <circle cx="82" cy="50" r="2"/>
                    <circle cx="66" cy="50" r="2"/>
                    <circle cx="50" cy="50" r="2"/>
                    <circle cx="34" cy="50" r="2"/>
                    <circle cx="18" cy="50" r="2"/>
                    <circle cx="2" cy="50" r="2"/>
                    <circle cx="242" cy="34" r="2"/>
                    <circle cx="226" cy="34" r="2"/>
                    <circle cx="210" cy="34" r="2"/>
                    <circle cx="194" cy="34" r="2"/>
                    <circle cx="178" cy="34" r="2"/>
                    <circle cx="162" cy="34" r="2"/>
                    <circle cx="146" cy="34" r="2"/>
                    <circle cx="130" cy="34" r="2"/>
                    <circle cx="114" cy="34" r="2"/>
                    <circle cx="98" cy="34" r="2"/>
                    <circle cx="82" cy="34" r="2"/>
                    <circle cx="66" cy="34" r="2"/>
                    <circle cx="50" cy="34" r="2"/>
                    <circle cx="34" cy="34" r="2"/>
                    <circle cx="18" cy="34" r="2"/>
                    <circle cx="2" cy="34" r="2"/>
                    <circle cx="242" cy="18" r="2"/>
                    <circle cx="226" cy="18" r="2"/>
                    <circle cx="210" cy="18" r="2"/>
                    <circle cx="194" cy="18" r="2"/>
                    <circle cx="178" cy="18" r="2"/>
                    <circle cx="162" cy="18" r="2"/>
                    <circle cx="146" cy="18" r="2"/>
                    <circle cx="130" cy="18" r="2"/>
                    <circle cx="114" cy="18" r="2"/>
                    <circle cx="98" cy="18" r="2"/>
                    <circle cx="82" cy="18" r="2"/>
                    <circle cx="66" cy="18" r="2"/>
                    <circle cx="50" cy="18" r="2"/>
                    <circle cx="34" cy="18" r="2"/>
                    <circle cx="18" cy="18" r="2"/>
                    <circle cx="2" cy="18" r="2"/>
                    <circle cx="242" cy="2" r="2"/>
                    <circle cx="226" cy="2" r="2"/>
                    <circle cx="210" cy="2" r="2"/>
                    <circle cx="194" cy="2" r="2"/>
                    <circle cx="178" cy="2" r="2"/>
                    <circle cx="162" cy="2" r="2"/>
                    <circle cx="146" cy="2" r="2"/>
                    <circle cx="130" cy="2" r="2"/>
                    <circle cx="114" cy="2" r="2"/>
                    <circle cx="98" cy="2" r="2"/>
                    <circle cx="82" cy="2" r="2"/>
                    <circle cx="66" cy="2" r="2"/>
                    <circle cx="50" cy="2" r="2"/>
                    <circle cx="34" cy="2" r="2"/>
                    <circle cx="18" cy="2" r="2"/>
                    <circle cx="2" cy="2" r="2"/>
                </g>
            </g>
        </g>
    </g>
</svg>
